<?xml version="1.0" standalone="no"?>
<!DOCTYPE svg PUBLIC "-//W3C//DTD SVG 20010904//EN"
 "http://www.w3.org/TR/2001/REC-SVG-20010904/DTD/svg10.dtd">
<svg version="1.0" xmlns="http://www.w3.org/2000/svg"
 width="150.000000pt" height="150.000000pt" viewBox="0 0 150.000000 150.000000"
 preserveAspectRatio="xMidYMid meet">
<metadata>
Created by potrace 1.10, written by Peter Selinger 2001-2011
</metadata>
<g transform="translate(0.000000,150.000000) scale(0.100000,-0.100000)"
fill="#000000" stroke="none">
<path d="M697 1129 c-123 -14 -234 -96 -294 -218 -25 -50 -28 -67 -28 -156 0
-91 3 -106 31 -165 37 -78 98 -140 179 -183 56 -29 67 -31 165 -32 94 0 111 3
160 27 30 14 63 29 73 32 9 3 20 14 24 23 3 10 22 35 40 56 19 21 43 60 54 85
38 87 38 278 1 270 -9 -3 -16 -8 -15 -14 1 -5 5 -27 9 -49 l7 -40 -47 48 c-44
46 -46 50 -29 63 10 8 28 19 41 24 30 13 38 38 19 57 -21 22 -42 11 -62 -32
-10 -19 -21 -38 -26 -41 -5 -3 -37 8 -71 25 -34 17 -69 31 -80 31 -28 0 -22
12 31 64 46 46 71 53 71 21 0 -8 9 -19 21 -25 16 -9 25 -8 40 6 36 32 17 75
-32 73 -13 -1 -44 8 -69 19 -59 27 -140 39 -213 31z m-7 -102 l0 -73 -50 -15
-51 -16 3 71 3 70 45 18 c25 9 46 17 48 17 1 1 2 -32 2 -72z m148 62 c26 -7
50 -15 55 -18 4 -4 -19 -32 -51 -64 -48 -46 -64 -55 -88 -53 -29 3 -29 4 -32
75 l-3 71 36 0 c20 0 57 -5 83 -11z m-278 -113 c0 -67 -2 -75 -21 -81 -12 -4
-48 -34 -81 -67 l-61 -61 7 39 c12 64 52 140 102 194 26 27 48 50 50 50 2 0 4
-33 4 -74z m282 -81 c47 -35 71 -90 66 -151 -13 -159 -196 -210 -291 -82 -13
18 -22 48 -25 85 -3 49 0 64 20 93 40 59 84 82 148 78 35 -2 66 -11 82 -23z
m-236 -25 c-22 -27 -46 -86 -46 -115 0 -32 25 -90 52 -120 16 -19 26 -35 21
-35 -15 0 -123 73 -168 113 l-40 35 35 37 c41 43 139 114 158 114 9 1 4 -10
-12 -29z m340 -9 c32 -21 75 -55 94 -76 l35 -37 -50 -44 c-48 -43 -141 -104
-159 -104 -4 0 6 16 22 35 27 30 52 88 52 120 0 29 -24 88 -46 115 -34 40 -19
38 52 -9z m-416 -243 l25 -16 -35 -37 -35 -36 -23 28 c-21 26 -62 138 -62 169
0 7 24 -10 53 -39 28 -29 63 -60 77 -69z m556 39 c-8 -29 -29 -74 -46 -99 -29
-43 -34 -47 -63 -41 -18 3 -45 18 -61 33 l-29 28 47 21 c26 11 72 46 104 78
31 32 58 52 60 46 2 -7 -3 -37 -12 -66z m-440 -88 c38 -10 44 -15 44 -38 0
-16 -14 -41 -36 -65 -41 -43 -51 -42 -120 11 l-35 26 38 39 c41 42 45 43 109
27z m246 -36 c19 -21 38 -48 41 -61 4 -19 -1 -25 -31 -38 -83 -34 -82 -35 -82
48 0 103 13 112 72 51z m-102 -54 l0 -82 -66 6 c-37 4 -69 9 -71 11 -3 3 11
19 31 36 30 27 36 39 36 71 0 38 1 39 35 39 l35 0 0 -81z"/>
<path d="M723 853 c-30 -6 -73 -59 -73 -89 0 -33 25 -81 49 -94 65 -34 151 14
151 84 0 63 -63 112 -127 99z m65 -49 c46 -32 17 -114 -40 -114 -28 0 -58 37
-58 69 0 31 30 61 60 61 9 0 26 -7 38 -16z"/>
</g>
</svg>
